<mxfile host="app.diagrams.net" agent="Mozilla/5.0 (Windows NT 10.0; Win64; x64) AppleWebKit/537.36 (KHTML, like Gecko) Chrome/122.0.6261.95 Safari/537.36" version="24.7.16">
  <diagram name="Page-1" id="wKx4i9XhinuK1DLXmOxU">
    <mxGraphModel dx="1434" dy="762" grid="0" gridSize="10" guides="0" tooltips="1" connect="1" arrows="1" fold="1" page="1" pageScale="1" pageWidth="827" pageHeight="1169" math="0" shadow="0">
      <root>
        <mxCell id="0" />
        <mxCell id="1" parent="0" />
        <mxCell id="T9-av8D77mjDVqZ95k8P-29" value="" style="rounded=1;whiteSpace=wrap;html=1;absoluteArcSize=1;arcSize=14;strokeWidth=2;dashed=1;dashPattern=8 8;" parent="1" vertex="1">
          <mxGeometry x="343" y="405" width="316" height="164" as="geometry" />
        </mxCell>
        <mxCell id="T9-av8D77mjDVqZ95k8P-28" value="" style="rounded=1;whiteSpace=wrap;html=1;absoluteArcSize=1;arcSize=14;strokeWidth=2;dashed=1;dashPattern=8 8;" parent="1" vertex="1">
          <mxGeometry x="253.5" y="595" width="495" height="305" as="geometry" />
        </mxCell>
        <UserObject label="&lt;div style=&quot;font-size: 1px&quot;&gt;&lt;p style=&quot;text-align:center;margin-left:0;margin-right:0;margin-top:0px;margin-bottom:0px;text-indent:0;vertical-align:middle;direction:ltr;&quot;&gt;&lt;font style=&quot;font-size:12px;font-family:0;color:#000000;direction:ltr;letter-spacing:0px;line-height:120%;opacity:1&quot;&gt;移动端&lt;/font&gt;&lt;/p&gt;&lt;/div&gt;" tags="Background" id="T9-av8D77mjDVqZ95k8P-3">
          <mxCell style="verticalAlign=middle;align=center;overflow=width;vsdxID=3;fillColor=none;gradientColor=none;image;aspect=fixed;image=data:image/png,iVBORw0KGgoAAAANSUhEUgAAACgAAABMCAYAAAAfm/UhAAAAAXNSR0IArs4c6QAAApNJREFUaEPtmk1rE2EUhc8NUrBGLCiICrbxD7STVIXaBIqoXZj6gcmiRZsa60ZXCroUl6K4URFaTBMoURSVfoBFhYopBbXJ6LaI4lJBbGmyauHKpLQksZFk7iSr++6Gec+5h2cOzOYSSk6r91DYBdcpEHUBvLP0fW2e6SeYp5n4xef0zLPCGbT24PV2BploBMD22oSo2PU3MQ9kMjMTliIf0GgP9IB5rGKLelwkOmHOvR9fDejzZwFsqcfcKmbkzHTKTUZ74ByYE1UI63aVQREyvP4xEHqqnRoOnURj42bEE4+xZ/cuNDVtK2uxvLKC+fmv1Y4AiCfI8Pn/AGiqVh0djMC1qQHDD4dwYL8XLS17y1osLWXxaupttSOs+wtWQLajrJdGA0pJrxPs6Dgo9XJUPzv7Ie+3HrCvN4yrVy47OsSu2Z2795BMrv7xNKAdikrQDrVCjRJUglICUr12UAlKCUj12kElKCUg1WsHlaCUgFSvHVSCUgJSvXZQCUoJSPXaQSUoJSDVaweVoJSAVK8dVIJSAlK9dlAJSglI9dpBJSglINVrB5WglIBUrx2sGcG+3pDU2xH9aPLpv2spjjjXwMSx3a3g8e78Fpx1Pn7KYGJyypG4VsAFAOWX/yoYcyF6Ft3HDhfdtNbxHsVGK1D/98qitYE5DuagXaetbjdGYvc3lEcGLiGby9m1BgOT1OYL9BM4btfF42nG7Vs3N5Rfu34D377/sGsNYj7vyJJtPPYAbnfxjq5FziIoOMtmOtXgyJry0SNduDjYX5RlaDiB12+m7ecjnDHnUs9LF71jAHbYcd3naYZhtOalpvlF8mkXQYha4Syv9YBrodp8nSFiOl3fVXn8YvA7InppzqWeFAL6C7GlSvM7Zce6AAAAAElFTkSuQmCC;strokeColor=none;strokeWidth=0;points=[];labelBackgroundColor=none;rounded=0;html=1;whiteSpace=wrap;" parent="1" vertex="1">
            <mxGeometry x="354" y="21" width="43" height="76" as="geometry" />
          </mxCell>
        </UserObject>
        <UserObject label="&lt;div style=&quot;font-size: 1px&quot;&gt;&lt;p style=&quot;text-align:center;margin-left:0;margin-right:0;margin-top:0px;margin-bottom:0px;text-indent:0;vertical-align:middle;direction:ltr;&quot;&gt;&lt;font style=&quot;font-size:12px;font-family:0;color:#000000;direction:ltr;letter-spacing:0px;line-height:120%;opacity:1&quot;&gt;防火墙&lt;/font&gt;&lt;/p&gt;&lt;/div&gt;" tags="Background" id="T9-av8D77mjDVqZ95k8P-4">
          <mxCell style="verticalAlign=middle;align=center;overflow=width;vsdxID=4;fillColor=none;gradientColor=none;image;aspect=fixed;image=data:image/png,iVBORw0KGgoAAAANSUhEUgAAAEsAAAA1CAYAAAAJZhZbAAAAAXNSR0IArs4c6QAADAJJREFUaEPlW3l8VNUV/u7Mm30mkQQNYRMQUASsgkpVoIitBcSlaCKhERCUyCJYCbhWQEQxwRAiKAhRBMEAgqDgFhBFRVSwFJUqSBFEjCwhyezzZt5rzx1nfplklvfSCcRy/oK5525fzrv3nO+cy2oKsqsApCL54tbKmo6WB8qOVhTeYTHL3p8B2OJNwyypkJ3ValdidzFDZospy52uZ4a28fulfWAwqh1EgX41qynIlhUoNkgloPG3a5a/7lDl7KxUQcPojxJXzNmPwrXmSUCWEqlGtPsl+Zy0B9dUn3xmaBtdQDqsqrMK5SYEFoNt8gp4PyqD7/M3VGwBOOvAYkYrrPeWAn4RzqX5kE5VKAbs7APLnALr+MUcoEDFAbhXzYTscysC7KwGixCSKn+Ce10hpFN0L8SXsw4sgsN63zIwnYEDpGmWCdlZBVfZ4xy4eHJWgmW+/TFo23aFe+1s6HoOgtDuEsjOU3C+NAWy2x4Tr9MJlheAPpGpq23X9xgAsbKiqy374b1KXQfTjZMgXHQ13K8Xwv/9Tpiz/w7t+d3g/3Y73G/OO6NgMcDHHAVZLZgYYGrBSKRvHv/8TUg97yEAQxljO5xzczPhcsX3s+5fVgCjJdezaT7EvR+BWZvBMnoumN6EQMXBEd4X88vrDiDp5YBtyuvHQr//MisnwwqvJtH61LbTypMOUu1FyLJMp3MLAHmMsRcSLVCW5TkAJnveWwzxn5u5Olmo4bo76Z+vMcayEo3RmO3klH6QcAKG4y4YRlJIQbrVBdnlDLAm6mcaNL6d0LUvgQXfp2sPeT9eHfdqM+fO6qTN7JjuWjUTgcNf8+HJuqxjF0IWvZKjePjnieZU0s4Au23q6utJ116QXS4r2Atfi9JwR0agc+rUtfvlkoEGu8fmUbIo4YIeMA15IKxKnrn3w5UA6kdYmnMyYLm7BLKrGo4FeRE6lhFPQ3NeO7jXzIL/hz1Kpk6oYzPajai0ynYzozNbkTQqWOQGkDtQWzzvLoK45/16izP0zYG+1y3w7dwI79blEe2Ga7Kgv/o2+L58G94tSxVtLJFSkwOLFkzWQlbj/WQNaNOyxwnnkkkRroC2VWeYh83k+3Mungip6peIveq6XwvjgHvg3/c53BueSYSDovamCdaoImjSW8G5dAqM190JbZuLIe5+D57y0uCZZDDDPHx2END3X4Zv11v1NqvvOQiG/iMg7i6Hp3wJb9e27AyhyzXQpJ4HaLSQPQ7uk/k+e4N/yomkaYL163njfHkqX79lRAHg98GxYAyP/Uy3TIbQ6UoEDn8D16rHo+6RPkGySt/218IWSr/VFv/+L+D9YHk9q4wFWtMEK28+NCnnhj8vc84MaFtfBM/mUkgnjsA8dBrddHAuuQ+yozLq3gz9cqG/4kZ4t7zErchw7fAIPfeGIvj3fZbImCLamxxYzGSDdcISyF4XHCXcV4Kua18YB42HdPwwB0nbshN8n62Hd9urMTdrHDgWum79uGWFLEo6eQSa9NZRLwQlqDUqWIyJGeQpq3Id2l8K020PIfDjXrjKZgT3oNXBOv4FflaRcKt6/h4OaCwJhT2hdvGrrZCO/cCdVd+X7wQtTqU0CCx74dB+CedhgWO2/DV7Q3pVc7J6avyyIVE/893FE7VprW6nm5CsIiShc4r+T24EuRPxxHJXMWchOLj2k3CW/g2alp147Ci77TsdJaMmJVpL7XZZ0Iqp+au+oN+U7oV02f6SgYaOlb1ENZMp0p02jTxP8tgz6HCXjh0Kd9NfdSsMvbP5/8kVIJcgLlh3zoGmeRuu4t26DL6dm8AszWAdt5B+8lFIxRg7FRpDnj496bEhB6umMLsaMlIUAaBCSXtuW695ZKFBqj4O5wsTInoKHS6D6dYH+W+OeSMTMqLGwROh63IN1ycXhM47EnPOdGhbdwF8nieYwfT3ytlZbQUN2wcgodWr2ErQooFTij14tYMb/zQaukuvh/iPd+HZ/GJEd01Kc1jyFnD62LX84YRD63//Fxj6DOWOrGP+XWF9basLYR5G7oZcCbC2lUU5ab+97I6gh3XcIn6Iu5Y/hEDFv+sBYpuyCuI32+B5a0FCsEIxJnFcxHXVFrJQstT/Xh0zK4tyFv/mwNJ1+wOMA8fxz4U+m2hiGTMf4tcfRBz8MVETdLDd+xLEb7fD8/ZzkVbavA0sIwsBxryuT9b2DmxfzQ/uxpBG+QxDjicFvRT8RhNyRn27yzkLqkSMN0zgcWU0N8E4IA+67v0Bn3udfd7IIUrGa4hO0sGiK56uekgBfr7E8p/I0RS/fAeBXw4qWrfQ/lLu+VMStq4wcyosY57lyQ7nyw9wH6wxJOlg6S8fDMO1dyBw6Cu4Vj8Rc80U63l3rAcCCr0WpoHukv5hBrXuwPqrhsDQ+3YEju6Ha8WjjYGVcvJP6ezGwfdC16V3OOiN1U97fncOqBpheiNkX3TekazKMnZh8FIpm8GjhmQLsxdkO2UgGHskQULedkJWU9DxVH0yhSyaLFv81yfwbCxJ5tA0lo/VzB+erqkWhWSMLHS7zma4afR+Gssxb0RMK0jGXNHGIG6Lzi6+s22rLhY/3hCdxmjIAiwNzO7ITw1rVmlhgbpzpo0o7oOU5hvjuQwxP8sWF0DTvDXErz9syFbCfUy35EPodAUkj2ta1eIxxbEGS5+4oobaqouy0vyC3q9kUqUH/AlotF1S8l89IU/P0tvNjCo26sVfobQVpbEonaVWqDDEt+tt+HasU9s1rE/hD4VBRE0TRR1DvDaXnLIrs5ncubqK9qJVMqFSsKAku6O//AZOzAWzOCuUzB+hQ44sObTUV22NVu2BrPc8B2ZLh3PRBEg1x6Ouo0EUTTJTYSHL8n2xkVO8aoVuUbpNSVzLHlTsg9WdJ0QBhcoAoq3jjIOlu+zPMP5xFE+9UwperQgdesB0azDPKO7ZAs+7CZPYUacg+odooLo8Wm3lMw6WcEFPmIZMBVG+zhcnq8UKIfqYOgZ++g6ulY+pHoM66HvdDEPfYXGPgzMOVohzpwXb597BszhKJRwm/dohGg+mdCyim+lIiJVao3HOOFi0iLBT+uY8xUEy9aM0P1ExAIj8GvW/gEV5SG1Ge16mFCtQbxJghXJ8FMxSUKtEtJkdYcp+FAj4wUy27gC+ogJcylyrFU1aS16mROJ4Lo9XD572A15pdocZLbzqBYKeE3tE8CUSU9YjvMrPu22l39B32EUAvpcqj/LEhFohKkd3cZ9EqX7ZZrSbeGGIhXkgKyu9Yg3J7rjnDDnfK+lihki20UXDNWktHyN6xll6X9xXE2RV5txZkCWpyr5y5hUpudOO0JEni16B5xqleoFCTPzCNROyLPr3bB7sfK/0QDRlWSP66TEDtSXaS+3+7PisIZlJi6JrjWyeWvYKBF1//8HdcL/2VMwNhnKCUs2JGZ75eTwnZp5ath6C7ko17AFdLkQ6Ul0FHKeedJXcpd53iWPGkk3rJ9bBKzdCTSkzpxBlcpJptOlEl7jXFdTL4pCXTd627KqBY9G4MAsRLjHasR7ej2JnqkN7o5iSuHgqEwj8/D1crzyi9utVou9WHO4oGa2ujq5/bh9jj8HLwFh76cSPnAysfeCGSonq1l1RSt/81yc4kede93TcSmXy7Yw3TuIsqewXv3E+n9eV6OfGkEYFix46nTN5rR1+cSsE3SW0CSpWE3e9xembcHXyG3Ph/25HxP6MA8ZC170f/Ad2cauMJsGbl6ppeGnsDt+m4lHevZ8mn/X7dfJGB4sOUseG4gzj7/pXEDtKQrVUFD9SLpBf8c+O5r9FHKY6A8xU25XSHOLej4NZHSkAbYsOEC68CkLnXrymi6c/Rd9C6AyTKotyMn5zqbDQpus+oRM6Xg4qTKOHASGh1xPO0vujWo4m9VxeWKJJaxXMQutNoN/CfU8egWfLUngP7vn/fUJHB7K+5w3BBARZzaYguxlNiFM33TyZPx4I/xGOfMvrHfz7gzUSp/OFxRl7nEnXPcWEgaNUnhBfyCKlmhM8yVH3tdhZAVYigJS2nzawqguyq1jjvJGu0sqarmreSCsFp47eMRczdKAHDfS0RgY7kMxsVXguGcf/A1ol2G3BOsIAAAAAAElFTkSuQmCC;strokeColor=none;strokeWidth=0;points=[];labelBackgroundColor=none;rounded=0;html=1;whiteSpace=wrap;" parent="1" vertex="1">
            <mxGeometry x="448" y="200" width="82" height="53" as="geometry" />
          </mxCell>
        </UserObject>
        <UserObject label="&lt;div style=&quot;font-size: 1px&quot;&gt;&lt;p style=&quot;text-align:center;margin-left:0;margin-right:0;margin-top:0px;margin-bottom:0px;text-indent:0;vertical-align:middle;direction:ltr;&quot;&gt;&lt;font style=&quot;font-size:12px;font-family:0;color:#000000;direction:ltr;letter-spacing:0px;line-height:120%;opacity:1&quot;&gt;PC&lt;/font&gt;&lt;/p&gt;&lt;/div&gt;" tags="Background" id="T9-av8D77mjDVqZ95k8P-5">
          <mxCell style="verticalAlign=middle;align=center;overflow=width;vsdxID=5;fillColor=none;gradientColor=none;image;aspect=fixed;image=data:image/png,iVBORw0KGgoAAAANSUhEUgAAAE0AAABBCAYAAACUyynLAAAAAXNSR0IArs4c6QAABBxJREFUeF7tnFtsDFEcxr+ZrW3XotVqsOJWJXWpsOKSUJfqtiRVgqxLIm6JEPHAo0sivJBoIkERiaLVxRattpGsCokiqhoUpTwQSRNBSN12u7pHpq1iddg5M1N2+p+nTeb/fefMb78zc2ZyZgSE+WYbN72X4G+qBdCrgw4lT+ighnRrpt/olJkAytevXobEQQN0a8fnb8SuvYfxvqEBYQ/NNmqao3sPi6c477BuwL4b5xa4ke8uNga02NhunsLcHN2hnXQX4WhBofGgnSwsw9UbVfD5GpshDuxv44L54mV9sy6uZzSWL8rCmOQkGBZa9oHjuPeojguUnGjlknmYMWW8caEFAk34+MmrKbQe3a3NfoZNmqa0gswMA21satY6qzUqZ06GNPPQd6ute4YHj+vC/0KQMGFmprWrpaTg0F59iQE4db4EJ04XhT80aZ5GUw6FeQmG5jp/ERfLK9pcoiLNCh1byr2tUxbpt3NuBjLTpxr3QpDrKsKVittcoORE82bPwPzMNIKmhKrhod26U4MrFZXo0zteCRfZ2rdv32FW6mSMHJ5o3KRpQkrGxDDztH9y9bQ7nDUQYNHzH9LTmzFmAZitT7z8cDSbzdi9bZPqbrQlze5wsg2rliC2Z4xq0//R4OOnz8g+dBz5ObsgiiZVXfwFWmnefvTV6MSpqlc6iD9/+YKUuSsImhK2BE0JrdZagkbQOAhwSChpBI2DAIeEkkbQOAhwSChpBI2DAIeEkkbQOAhwSChpGkF73RDAs1dNiDABCb1NiLOKITl36qcc56q8yL/esnRhRYoFWfZIgvYzgfaGp+umF+7KFmiLJ0XBOTGKoP0NWm39Vxy75oUgMKxK6YphfUN7ONmph2dIsWqniKBxkCNoBE2eAM3TONJB0AgaBwEOCSWNoHEQ4JBQ0lRAO5K9HaIY2o25XDPu4jLkF16AIK3l6AzLEpYuSIcgqHsV7GHtE9x7+LjzQKMFMAqGKZ3TFMD6XkrQCBoHAQ6Jbklbs2wh4mKiObr0/0uklZD7jro0XtSX5rzE9F5zy5jF/9Vvbw+xKSKiRhTEBl78LBCIAdjIpKFDZC0iTCZs3bSWt4k2XYeu7rYlT08ShOYvGvy2MRFT6u9eu857RP9kdTdvZ5XoCJoSWq21BI2gqXvf0+5wugBIr/TGQ8BZWZ4BFulr9GW2t7+L2ewRRfGDrJZhAYA3YMLl6vLTi4Prwu6cZnc4nwJI/EP4/D/2MeluOfiOmQEC+0nf5Q9ez6svnRkc9tA4RqrmEilpMdFWz7kTBzX3DjbMcxfhmFE+ZiKIAc+eHZsxNnmEruA2btmJ+4+eqDun6drDEM2lpEnQQizXpEzdUzlNuqDOpN/oqakAu6zORZk67KEljEuL9vl91QASlB06d3XpN6KtRBx6qcOBAAAAAElFTkSuQmCC;strokeColor=none;strokeWidth=0;points=[];labelBackgroundColor=none;rounded=0;html=1;whiteSpace=wrap;" parent="1" vertex="1">
            <mxGeometry x="560" y="32" width="82" height="65" as="geometry" />
          </mxCell>
        </UserObject>
        <UserObject label="" tags="Background" id="T9-av8D77mjDVqZ95k8P-6">
          <mxCell style="vsdxID=6;fillColor=none;gradientColor=none;image;aspect=fixed;image=data:image/png,iVBORw0KGgoAAAANSUhEUgAAACQAAABQCAYAAABxs9dPAAAAAXNSR0IArs4c6QAAA9FJREFUaEPtmktME1EUhv87nbbTlr6gQAFbHhqNxkQTRYNRjNH4AkmMC10Yda2JKzcmunCvLt24cSsmGOOWpa8Yja9E4hsliLSlLfQ5nZeZQQplkLY46Yw6s53bc77573/PnDu9pKP7cFCg+RsEpB+AFbpcEieB3KdF/iwJ9ewfIiBHdeFYlFQChki450BBP2VUMhRkIMkI6swxmEDlZoNcvTVkrCk7fv6SsYBMU5cx0d+xyoivqdxi0OS+lIyo4iypUGjHIRDGrRo8kZjWBEQJIgrgXg1XBrS6tx+XTh4rGTz8+h0GH77QB4he16Nd4mUi8e8eV6YQ1dBWEyBxarwyoK5dfWhpUUM9/fBVO9BqPCQDnTq4pyT5++9R3Hn0Uh8gy5qt2iVeJpLw8VllU1YTmt8kWbIOUf6WmjCJiYnKFOra1Q+Ls041eDSS0A60OlP348KJgZLkD95+0s/U9Npt2imxXGF8/7SyKaOaOmoCJEZGKwOS61B7KKQa/GDki3ag1XmoDyf29ZYkH43EdfRQ5ybtlFjOQ19eVTZlNaGppjCaQAsUWPLVYbiXq/zq2Nu9uWTmMiyn3yqTgbo3blBZaeiJelWs2G/V1CHDtbCGa/LlbdCpQ4ta2PEIBh/q1MLKQMFgq8oeujX5httKr3jlaPDDv+PrhwYPuuIQpkLlpDMVMhUqp0C5+6aHyiu0s89Yfy2s6jtjLKC5/zrymSzS8QT8Lc1ITEzC5fcik5gG43KCZwsQRQFWhgGbzcETqMdMLA5PYwAz0Rjc9X6k4gnYHAwEQYBQ4OCocyGXzsDbGMB0NFYcOxfXxtghK8HlWQRC898zi6aWgeLj39Hc1YHJz6PwtwaRik7B6fWUAGVnUvAHmxAbG0cgHELs2xga2lqVpEydqwRIfsD6tlZEv40Vx8px01MJ2J0OBaiQzaKxPVy0lglkKrTQ1KaHzFVm1iEAZmE0C+O/XRjzqRTcgQakYlOw17nApjOgbTbwBfkQFmCxWiFwnNKSZKdn4PT5kE0m4XC7kUulQNG00n4QSYLVbgfHsnD5fMgkk8Wxc3Epi0VpPyRBgC/YPN9+XLx201gd47kr140F9P8e17FQgCCW7IJoEPCKk+avmmwUmXYvvL1hZN5GkX7+Q8m+nrLjtM2Dx3wO9/i0uqcut4H7k/u+3WHYO7yQ8jwit0eUUMetHmy1MOAkCZfZKIRfCWqiEOWg4d4SRO5TEoWJWTUYQjBAu/FGyGNEnC0r8lUToGrUNd7RUyMdzgUwSDq3723mKfoGgXQEIDodX0aeAHeJnT37E2WXxf6oy9/MAAAAAElFTkSuQmCC;strokeColor=none;strokeWidth=0;points=[];labelBackgroundColor=none;rounded=0;html=1;whiteSpace=wrap;" parent="1" vertex="1">
            <mxGeometry x="473" y="422" width="36" height="80" as="geometry" />
          </mxCell>
        </UserObject>
        <UserObject label="" tags="Background" id="T9-av8D77mjDVqZ95k8P-7">
          <mxCell style="vsdxID=7;fillColor=none;gradientColor=none;image;aspect=fixed;image=data:image/png,iVBORw0KGgoAAAANSUhEUgAAACQAAABQCAYAAABxs9dPAAAAAXNSR0IArs4c6QAAA9FJREFUaEPtmktME1EUhv87nbbTlr6gQAFbHhqNxkQTRYNRjNH4AkmMC10Yda2JKzcmunCvLt24cSsmGOOWpa8Yja9E4hsliLSlLfQ5nZeZQQplkLY46Yw6s53bc77573/PnDu9pKP7cFCg+RsEpB+AFbpcEieB3KdF/iwJ9ewfIiBHdeFYlFQChki450BBP2VUMhRkIMkI6swxmEDlZoNcvTVkrCk7fv6SsYBMU5cx0d+xyoivqdxi0OS+lIyo4iypUGjHIRDGrRo8kZjWBEQJIgrgXg1XBrS6tx+XTh4rGTz8+h0GH77QB4he16Nd4mUi8e8eV6YQ1dBWEyBxarwyoK5dfWhpUUM9/fBVO9BqPCQDnTq4pyT5++9R3Hn0Uh8gy5qt2iVeJpLw8VllU1YTmt8kWbIOUf6WmjCJiYnKFOra1Q+Ls041eDSS0A60OlP348KJgZLkD95+0s/U9Npt2imxXGF8/7SyKaOaOmoCJEZGKwOS61B7KKQa/GDki3ag1XmoDyf29ZYkH43EdfRQ5ybtlFjOQ19eVTZlNaGppjCaQAsUWPLVYbiXq/zq2Nu9uWTmMiyn3yqTgbo3blBZaeiJelWs2G/V1CHDtbCGa/LlbdCpQ4ta2PEIBh/q1MLKQMFgq8oeujX5httKr3jlaPDDv+PrhwYPuuIQpkLlpDMVMhUqp0C5+6aHyiu0s89Yfy2s6jtjLKC5/zrymSzS8QT8Lc1ITEzC5fcik5gG43KCZwsQRQFWhgGbzcETqMdMLA5PYwAz0Rjc9X6k4gnYHAwEQYBQ4OCocyGXzsDbGMB0NFYcOxfXxtghK8HlWQRC898zi6aWgeLj39Hc1YHJz6PwtwaRik7B6fWUAGVnUvAHmxAbG0cgHELs2xga2lqVpEydqwRIfsD6tlZEv40Vx8px01MJ2J0OBaiQzaKxPVy0lglkKrTQ1KaHzFVm1iEAZmE0C+O/XRjzqRTcgQakYlOw17nApjOgbTbwBfkQFmCxWiFwnNKSZKdn4PT5kE0m4XC7kUulQNG00n4QSYLVbgfHsnD5fMgkk8Wxc3Epi0VpPyRBgC/YPN9+XLx201gd47kr140F9P8e17FQgCCW7IJoEPCKk+avmmwUmXYvvL1hZN5GkX7+Q8m+nrLjtM2Dx3wO9/i0uqcut4H7k/u+3WHYO7yQ8jwit0eUUMetHmy1MOAkCZfZKIRfCWqiEOWg4d4SRO5TEoWJWTUYQjBAu/FGyGNEnC0r8lUToGrUNd7RUyMdzgUwSDq3723mKfoGgXQEIDodX0aeAHeJnT37E2WXxf6oy9/MAAAAAElFTkSuQmCC;strokeColor=none;strokeWidth=0;points=[];labelBackgroundColor=none;rounded=0;html=1;whiteSpace=wrap;" parent="1" vertex="1">
            <mxGeometry x="607" y="732" width="36" height="80" as="geometry" />
          </mxCell>
        </UserObject>
        <UserObject label="&lt;div style=&quot;font-size: 1px&quot;&gt;&lt;p style=&quot;text-align:center;margin-left:0;margin-right:0;margin-top:0px;margin-bottom:0px;text-indent:0;vertical-align:middle;direction:ltr;&quot;&gt;&lt;font style=&quot;font-size:12px;font-family:0;color:#000000;direction:ltr;letter-spacing:0px;line-height:120%;opacity:1&quot;&gt;数据集成&lt;br/&gt;&lt;/font&gt;&lt;font style=&quot;font-size:12px;font-family:0;color:#000000;direction:ltr;letter-spacing:0px;line-height:120%;opacity:1&quot;&gt;136.100.103.241&lt;br/&gt;&lt;/font&gt;&lt;/p&gt;&lt;/div&gt;" tags="Background" id="T9-av8D77mjDVqZ95k8P-8">
          <mxCell style="verticalAlign=middle;align=center;overflow=width;vsdxID=8;fillColor=none;gradientColor=none;shape=stencil(nZBLDoAgDAVP0z3SIyjeg0SURgWD+Lu9EGL8xBW7N828Ji1gOWs5KeBs9s72aqPGa8AKOCejlSMfEqAALFvrVOfsYprEk4xmTKNd44Y99VhscHY8qU7iQOYhFixbvfhXzlZfYgj3hQG+54dReh2KEw==);strokeColor=none;strokeWidth=0;spacingTop=-3;spacingBottom=-3;spacingLeft=-3;spacingRight=-3;points=[];labelBackgroundColor=none;rounded=0;html=1;whiteSpace=wrap;" parent="1" vertex="1">
            <mxGeometry x="571" y="822" width="108" height="40" as="geometry" />
          </mxCell>
        </UserObject>
        <UserObject label="&lt;div style=&quot;font-size: 1px&quot;&gt;&lt;p style=&quot;text-align:center;margin-left:0;margin-right:0;margin-top:0px;margin-bottom:0px;text-indent:0;vertical-align:middle;direction:ltr;&quot;&gt;&lt;font style=&quot;font-size:12px;font-family:0;color:#000000;direction:ltr;letter-spacing:0px;line-height:120%;opacity:1&quot;&gt;经过客户网络层处理&lt;/font&gt;&lt;/p&gt;&lt;/div&gt;" tags="Background" id="T9-av8D77mjDVqZ95k8P-9">
          <mxCell style="verticalAlign=middle;align=center;overflow=width;vsdxID=9;fillColor=none;gradientColor=none;shape=stencil(nZBLDoAgDAVP0z3SIyjeg0SURgWD+Lu9EGL8xBW7N828Ji1gOWs5KeBs9s72aqPGa8AKOCejlSMfEqAALFvrVOfsYprEk4xmTKNd44Y99VhscHY8qU7iQOYhFixbvfhXzlZfYgj3hQG+54dReh2KEw==);strokeColor=none;strokeWidth=0;spacingTop=-3;spacingBottom=-3;spacingLeft=-3;spacingRight=-3;points=[];labelBackgroundColor=none;rounded=0;html=1;whiteSpace=wrap;" parent="1" vertex="1">
            <mxGeometry x="365" y="299" width="259" height="40" as="geometry" />
          </mxCell>
        </UserObject>
        <UserObject label="&lt;div style=&quot;font-size: 1px&quot;&gt;&lt;p style=&quot;text-align:center;margin-left:0;margin-right:0;margin-top:0px;margin-bottom:0px;text-indent:0;vertical-align:middle;direction:ltr;&quot;&gt;&lt;font style=&quot;font-size:12px;font-family:0;color:#000000;direction:ltr;letter-spacing:0px;line-height:120%;opacity:1&quot;&gt;微服务集群&lt;br/&gt;&lt;br/&gt;&lt;/font&gt;&lt;font style=&quot;font-size:12px;font-family:0;color:#000000;direction:ltr;letter-spacing:0px;line-height:120%;opacity:1&quot;&gt;172.16.200.175&lt;br/&gt;&lt;/font&gt;&lt;/p&gt;&lt;/div&gt;" tags="Background" id="T9-av8D77mjDVqZ95k8P-10">
          <mxCell style="verticalAlign=middle;align=center;overflow=width;vsdxID=10;fillColor=none;gradientColor=none;shape=stencil(nZBLDoAgDAVP0z3SIyjeg0SURgWD+Lu9EGL8xBW7N828Ji1gOWs5KeBs9s72aqPGa8AKOCejlSMfEqAALFvrVOfsYprEk4xmTKNd44Y99VhscHY8qU7iQOYhFixbvfhXzlZfYgj3hQG+54dReh2KEw==);strokeColor=none;strokeWidth=0;spacingTop=-3;spacingBottom=-3;spacingLeft=-3;spacingRight=-3;points=[];labelBackgroundColor=none;rounded=0;html=1;whiteSpace=wrap;" parent="1" vertex="1">
            <mxGeometry x="427" y="512" width="127" height="40" as="geometry" />
          </mxCell>
        </UserObject>
        <UserObject label="&lt;div style=&quot;font-size: 1px&quot;&gt;&lt;p style=&quot;text-align:center;margin-left:0;margin-right:0;margin-top:0px;margin-bottom:0px;text-indent:0;vertical-align:middle;direction:ltr;&quot;&gt;&lt;font style=&quot;font-size:12px;font-family:0;color:#000000;direction:ltr;letter-spacing:0px;line-height:120%;opacity:1&quot;&gt;端口&lt;br/&gt;&lt;/font&gt;&lt;font style=&quot;font-size:12px;font-family:0;color:#000000;direction:ltr;letter-spacing:0px;line-height:120%;opacity:1&quot;&gt;flink：28081&lt;/font&gt;&lt;/p&gt;&lt;/div&gt;" tags="Background" id="T9-av8D77mjDVqZ95k8P-11">
          <mxCell style="verticalAlign=middle;align=center;overflow=width;vsdxID=11;fillColor=none;gradientColor=none;shape=stencil(nZBLDoAgDAVP0z3SIyjeg0SURgWD+Lu9EGL8xBW7N828Ji1gOWs5KeBs9s72aqPGa8AKOCejlSMfEqAALFvrVOfsYprEk4xmTKNd44Y99VhscHY8qU7iQOYhFixbvfhXzlZfYgj3hQG+54dReh2KEw==);strokeColor=none;strokeWidth=0;spacingTop=-3;spacingBottom=-3;spacingLeft=-3;spacingRight=-3;points=[];labelBackgroundColor=none;rounded=0;html=1;whiteSpace=wrap;" parent="1" vertex="1">
            <mxGeometry x="572" y="667" width="106" height="40" as="geometry" />
          </mxCell>
        </UserObject>
        <UserObject label="&lt;div style=&quot;font-size: 1px&quot;&gt;&lt;p style=&quot;text-align:center;margin-left:0;margin-right:0;margin-top:0px;margin-bottom:0px;text-indent:0;vertical-align:middle;direction:ltr;&quot;&gt;&lt;font style=&quot;font-size:12px;font-family:0;color:#000000;direction:ltr;letter-spacing:0px;line-height:120%;opacity:1&quot;&gt;端口&lt;br/&gt;&lt;/font&gt;&lt;font style=&quot;font-size:12px;font-family:0;color:#000000;direction:ltr;letter-spacing:0px;line-height:120%;opacity:1&quot;&gt;微服务：8880&lt;br/&gt;&lt;/font&gt;&lt;font style=&quot;font-size:12px;font-family:0;color:#000000;direction:ltr;letter-spacing:0px;line-height:120%;opacity:1&quot;&gt;管理器端口：38880&lt;/font&gt;&lt;/p&gt;&lt;/div&gt;" tags="Background" id="T9-av8D77mjDVqZ95k8P-12">
          <mxCell style="verticalAlign=middle;align=center;overflow=width;vsdxID=12;fillColor=none;gradientColor=none;shape=stencil(nZBLDoAgDAVP0z3SIyjeg0SURgWD+Lu9EGL8xBW7N828Ji1gOWs5KeBs9s72aqPGa8AKOCejlSMfEqAALFvrVOfsYprEk4xmTKNd44Y99VhscHY8qU7iQOYhFixbvfhXzlZfYgj3hQG+54dReh2KEw==);strokeColor=none;strokeWidth=0;spacingTop=-3;spacingBottom=-3;spacingLeft=-3;spacingRight=-3;points=[];labelBackgroundColor=none;rounded=0;html=1;whiteSpace=wrap;" parent="1" vertex="1">
            <mxGeometry x="522" y="410" width="135" height="65" as="geometry" />
          </mxCell>
        </UserObject>
        <UserObject label="" tags="Background" id="T9-av8D77mjDVqZ95k8P-13">
          <mxCell style="vsdxID=13;fillColor=none;gradientColor=none;image;aspect=fixed;image=data:image/png,iVBORw0KGgoAAAANSUhEUgAAACQAAABQCAYAAABxs9dPAAAAAXNSR0IArs4c6QAAA9FJREFUaEPtmktME1EUhv87nbbTlr6gQAFbHhqNxkQTRYNRjNH4AkmMC10Yda2JKzcmunCvLt24cSsmGOOWpa8Yja9E4hsliLSlLfQ5nZeZQQplkLY46Yw6s53bc77573/PnDu9pKP7cFCg+RsEpB+AFbpcEieB3KdF/iwJ9ewfIiBHdeFYlFQChki450BBP2VUMhRkIMkI6swxmEDlZoNcvTVkrCk7fv6SsYBMU5cx0d+xyoivqdxi0OS+lIyo4iypUGjHIRDGrRo8kZjWBEQJIgrgXg1XBrS6tx+XTh4rGTz8+h0GH77QB4he16Nd4mUi8e8eV6YQ1dBWEyBxarwyoK5dfWhpUUM9/fBVO9BqPCQDnTq4pyT5++9R3Hn0Uh8gy5qt2iVeJpLw8VllU1YTmt8kWbIOUf6WmjCJiYnKFOra1Q+Ls041eDSS0A60OlP348KJgZLkD95+0s/U9Npt2imxXGF8/7SyKaOaOmoCJEZGKwOS61B7KKQa/GDki3ag1XmoDyf29ZYkH43EdfRQ5ybtlFjOQ19eVTZlNaGppjCaQAsUWPLVYbiXq/zq2Nu9uWTmMiyn3yqTgbo3blBZaeiJelWs2G/V1CHDtbCGa/LlbdCpQ4ta2PEIBh/q1MLKQMFgq8oeujX5httKr3jlaPDDv+PrhwYPuuIQpkLlpDMVMhUqp0C5+6aHyiu0s89Yfy2s6jtjLKC5/zrymSzS8QT8Lc1ITEzC5fcik5gG43KCZwsQRQFWhgGbzcETqMdMLA5PYwAz0Rjc9X6k4gnYHAwEQYBQ4OCocyGXzsDbGMB0NFYcOxfXxtghK8HlWQRC898zi6aWgeLj39Hc1YHJz6PwtwaRik7B6fWUAGVnUvAHmxAbG0cgHELs2xga2lqVpEydqwRIfsD6tlZEv40Vx8px01MJ2J0OBaiQzaKxPVy0lglkKrTQ1KaHzFVm1iEAZmE0C+O/XRjzqRTcgQakYlOw17nApjOgbTbwBfkQFmCxWiFwnNKSZKdn4PT5kE0m4XC7kUulQNG00n4QSYLVbgfHsnD5fMgkk8Wxc3Epi0VpPyRBgC/YPN9+XLx201gd47kr140F9P8e17FQgCCW7IJoEPCKk+avmmwUmXYvvL1hZN5GkX7+Q8m+nrLjtM2Dx3wO9/i0uqcut4H7k/u+3WHYO7yQ8jwit0eUUMetHmy1MOAkCZfZKIRfCWqiEOWg4d4SRO5TEoWJWTUYQjBAu/FGyGNEnC0r8lUToGrUNd7RUyMdzgUwSDq3723mKfoGgXQEIDodX0aeAHeJnT37E2WXxf6oy9/MAAAAAElFTkSuQmCC;strokeColor=none;strokeWidth=0;points=[];labelBackgroundColor=none;rounded=0;html=1;whiteSpace=wrap;" parent="1" vertex="1">
            <mxGeometry x="355" y="732" width="36" height="80" as="geometry" />
          </mxCell>
        </UserObject>
        <UserObject label="&lt;div style=&quot;font-size: 1px&quot;&gt;&lt;p style=&quot;text-align:center;margin-left:0;margin-right:0;margin-top:0px;margin-bottom:0px;text-indent:0;vertical-align:middle;direction:ltr;&quot;&gt;&lt;font style=&quot;font-size:12px;font-family:0;color:#000000;direction:ltr;letter-spacing:0px;line-height:120%;opacity:1&quot;&gt;数据库+中间件&lt;br/&gt;&lt;/font&gt;&lt;font style=&quot;font-size:12px;font-family:0;color:#000000;direction:ltr;letter-spacing:0px;line-height:120%;opacity:1&quot;&gt;136.100.103.240&lt;br/&gt;&lt;/font&gt;&lt;/p&gt;&lt;/div&gt;" tags="Background" id="T9-av8D77mjDVqZ95k8P-14">
          <mxCell style="verticalAlign=middle;align=center;overflow=width;vsdxID=14;fillColor=none;gradientColor=none;shape=stencil(nZBLDoAgDAVP0z3SIyjeg0SURgWD+Lu9EGL8xBW7N828Ji1gOWs5KeBs9s72aqPGa8AKOCejlSMfEqAALFvrVOfsYprEk4xmTKNd44Y99VhscHY8qU7iQOYhFixbvfhXzlZfYgj3hQG+54dReh2KEw==);strokeColor=none;strokeWidth=0;spacingTop=-3;spacingBottom=-3;spacingLeft=-3;spacingRight=-3;points=[];labelBackgroundColor=none;rounded=0;html=1;whiteSpace=wrap;" parent="1" vertex="1">
            <mxGeometry x="315" y="822" width="117" height="40" as="geometry" />
          </mxCell>
        </UserObject>
        <UserObject label="&lt;div style=&quot;font-size: 1px&quot;&gt;&lt;p style=&quot;text-align:center;margin-left:0;margin-right:0;margin-top:0px;margin-bottom:0px;text-indent:0;vertical-align:middle;direction:ltr;&quot;&gt;&lt;font style=&quot;font-size:12px;font-family:0;color:#000000;direction:ltr;letter-spacing:0px;line-height:120%;opacity:1&quot;&gt;端口&lt;br&gt;&lt;/font&gt;&lt;font style=&quot;font-size:12px;font-family:0;color:#000000;direction:ltr;letter-spacing:0px;line-height:120%;opacity:1&quot;&gt;mysql：3306&lt;br&gt;&lt;/font&gt;&lt;font style=&quot;font-size:12px;font-family:0;color:#000000;direction:ltr;letter-spacing:0px;line-height:120%;opacity:1&quot;&gt;redis：6379&lt;br&gt;&lt;/font&gt;&lt;font style=&quot;font-size:12px;font-family:0;color:#000000;direction:ltr;letter-spacing:0px;line-height:120%;opacity:1&quot;&gt;mongodb：27017&lt;br&gt;&lt;br&gt;&lt;/font&gt;&lt;font style=&quot;font-size:12px;font-family:0;color:#000000;direction:ltr;letter-spacing:0px;line-height:120%;opacity:1&quot;&gt;kafka：9092&lt;br&gt;elasticserach：9200&lt;br&gt;文件存储：9000、9010&lt;br&gt;&lt;br&gt;&lt;/font&gt;&lt;font style=&quot;font-size:12px;font-family:0;color:#000000;direction:ltr;letter-spacing:0px;line-height:120%;opacity:1&quot;&gt;&lt;br&gt;&lt;/font&gt;&lt;/p&gt;&lt;/div&gt;" tags="Background" id="T9-av8D77mjDVqZ95k8P-15">
          <mxCell style="verticalAlign=middle;align=center;overflow=width;vsdxID=15;fillColor=none;gradientColor=none;shape=stencil(nZBLDoAgDAVP0z3SIyjeg0SURgWD+Lu9EGL8xBW7N828Ji1gOWs5KeBs9s72aqPGa8AKOCejlSMfEqAALFvrVOfsYprEk4xmTKNd44Y99VhscHY8qU7iQOYhFixbvfhXzlZfYgj3hQG+54dReh2KEw==);strokeColor=none;strokeWidth=0;spacingTop=-3;spacingBottom=-3;spacingLeft=-3;spacingRight=-3;points=[];labelBackgroundColor=none;rounded=0;html=1;whiteSpace=wrap;" parent="1" vertex="1">
            <mxGeometry x="292" y="618" width="163" height="130" as="geometry" />
          </mxCell>
        </UserObject>
        <UserObject label="" tags="Background" id="T9-av8D77mjDVqZ95k8P-16">
          <mxCell style="vsdxID=16;edgeStyle=none;startArrow=none;endArrow=block;startSize=5;endSize=5;strokeWidth=2;spacingTop=0;spacingBottom=0;spacingLeft=0;spacingRight=0;verticalAlign=middle;html=1;labelBackgroundColor=#ffffff;rounded=0;exitX=0.5116279069767442;exitY=1;exitDx=0;exitDy=0;exitPerimeter=0;entryX=0.5;entryY=0;entryDx=0;entryDy=0;entryPerimeter=0;" parent="1" source="T9-av8D77mjDVqZ95k8P-3" target="T9-av8D77mjDVqZ95k8P-4" edge="1">
            <mxGeometry relative="1" as="geometry">
              <mxPoint x="-57" y="153" as="offset" />
              <Array as="points">
                <mxPoint x="376" y="148.5" />
                <mxPoint x="489.5" y="148.5" />
              </Array>
            </mxGeometry>
          </mxCell>
        </UserObject>
        <UserObject label="&lt;div style=&quot;font-size: 1px&quot;&gt;&lt;p style=&quot;text-align:center;margin-left:0;margin-right:0;margin-top:0px;margin-bottom:0px;text-indent:0;vertical-align:middle;direction:ltr;&quot;&gt;&lt;br&gt;&lt;/p&gt;&lt;/div&gt;" tags="Background" id="T9-av8D77mjDVqZ95k8P-18">
          <mxCell style="vsdxID=18;edgeStyle=none;startArrow=none;endArrow=block;startSize=5;endSize=5;strokeWidth=2;spacingTop=0;spacingBottom=0;spacingLeft=0;spacingRight=0;verticalAlign=middle;html=1;labelBackgroundColor=#ffffff;rounded=0;align=center;exitX=0;exitY=0.5;exitDx=0;exitDy=0;exitPerimeter=0;entryX=1;entryY=0.5;entryDx=0;entryDy=0;entryPerimeter=0;" parent="1" source="T9-av8D77mjDVqZ95k8P-7" target="T9-av8D77mjDVqZ95k8P-13" edge="1">
            <mxGeometry y="234" relative="1" as="geometry">
              <mxPoint as="offset" />
              <Array as="points">
                <mxPoint x="519.13" y="772" />
                <mxPoint x="519.13" y="772" />
              </Array>
            </mxGeometry>
          </mxCell>
        </UserObject>
        <mxCell id="T9-av8D77mjDVqZ95k8P-24" value="kafka:9092&lt;div&gt;minio:9011&lt;/div&gt;" style="edgeLabel;html=1;align=center;verticalAlign=middle;resizable=0;points=[];" parent="T9-av8D77mjDVqZ95k8P-18" vertex="1" connectable="0">
          <mxGeometry x="0.1667" y="-3" relative="1" as="geometry">
            <mxPoint as="offset" />
          </mxGeometry>
        </mxCell>
        <mxCell id="T9-av8D77mjDVqZ95k8P-19" parent="1" vertex="1">
          <mxGeometry x="489" y="293" as="geometry" />
        </mxCell>
        <UserObject label="" tags="Background" id="T9-av8D77mjDVqZ95k8P-20">
          <mxCell style="vsdxID=19;edgeStyle=none;startArrow=none;endArrow=block;startSize=5;endSize=5;strokeWidth=2;spacingTop=0;spacingBottom=0;spacingLeft=0;spacingRight=0;verticalAlign=middle;html=1;labelBackgroundColor=#ffffff;rounded=0;exitX=0.5;exitY=1;exitDx=0;exitDy=0;exitPerimeter=0;" parent="1" source="T9-av8D77mjDVqZ95k8P-4" target="T9-av8D77mjDVqZ95k8P-19" edge="1">
            <mxGeometry relative="1" as="geometry">
              <mxPoint y="121" as="offset" />
              <Array as="points">
                <mxPoint x="489" y="273" />
                <mxPoint x="489" y="273" />
              </Array>
            </mxGeometry>
          </mxCell>
        </UserObject>
        <UserObject label="&lt;div style=&quot;font-size: 1px&quot;&gt;&lt;p style=&quot;text-align:center;margin-left:0;margin-right:0;margin-top:0px;margin-bottom:0px;text-indent:0;vertical-align:middle;direction:ltr;&quot;&gt;&lt;font style=&quot;font-size:12px;font-family:0;color:#000000;direction:ltr;letter-spacing:0px;line-height:120%;opacity:1&quot;&gt;公网访问地址：https://appflow.zs-hospital.sh.cn&lt;/font&gt;&lt;/p&gt;&lt;/div&gt;" tags="Background" id="T9-av8D77mjDVqZ95k8P-21">
          <mxCell style="vsdxID=20;edgeStyle=none;startArrow=none;endArrow=block;startSize=5;endSize=5;strokeWidth=2;spacingTop=0;spacingBottom=0;spacingLeft=0;spacingRight=0;verticalAlign=middle;html=1;labelBackgroundColor=#ffffff;rounded=0;align=center;exitX=0.5;exitY=1;exitDx=0;exitDy=0;exitPerimeter=0;entryX=0.5;entryY=0;entryDx=0;entryDy=0;entryPerimeter=0;" parent="1" source="T9-av8D77mjDVqZ95k8P-5" target="T9-av8D77mjDVqZ95k8P-4" edge="1">
            <mxGeometry relative="1" as="geometry">
              <mxPoint x="-56" y="14" as="offset" />
              <Array as="points">
                <mxPoint x="601" y="148.5" />
                <mxPoint x="489.5" y="148.5" />
              </Array>
            </mxGeometry>
          </mxCell>
        </UserObject>
        <mxCell id="T9-av8D77mjDVqZ95k8P-22" parent="1" vertex="1">
          <mxGeometry x="495" y="355" as="geometry" />
        </mxCell>
        <UserObject label="" tags="Background" id="T9-av8D77mjDVqZ95k8P-23">
          <mxCell style="vsdxID=21;edgeStyle=none;startArrow=none;endArrow=block;startSize=5;endSize=5;strokeWidth=2;spacingTop=0;spacingBottom=0;spacingLeft=0;spacingRight=0;verticalAlign=middle;html=1;labelBackgroundColor=#ffffff;rounded=0;entryX=0.5012531328320802;entryY=0;entryDx=0;entryDy=0;entryPerimeter=0;" parent="1" source="T9-av8D77mjDVqZ95k8P-22" edge="1">
            <mxGeometry relative="1" as="geometry">
              <mxPoint y="122" as="offset" />
              <Array as="points">
                <mxPoint x="495" y="375.25" />
                <mxPoint x="495" y="375.25" />
              </Array>
              <mxPoint x="495" y="395" as="targetPoint" />
            </mxGeometry>
          </mxCell>
        </UserObject>
        <mxCell id="T9-av8D77mjDVqZ95k8P-30" value="" style="endArrow=classic;html=1;rounded=0;entryX=0.5;entryY=0;entryDx=0;entryDy=0;exitX=0.5;exitY=1;exitDx=0;exitDy=0;strokeWidth=2;endSize=5;startSize=5;" parent="1" source="T9-av8D77mjDVqZ95k8P-29" target="T9-av8D77mjDVqZ95k8P-28" edge="1">
          <mxGeometry width="50" height="50" relative="1" as="geometry">
            <mxPoint x="499" y="618" as="sourcePoint" />
            <mxPoint x="495" y="568" as="targetPoint" />
          </mxGeometry>
        </mxCell>
      </root>
    </mxGraphModel>
  </diagram>
</mxfile>
